<svg width="512" height="512" xmlns="http://www.w3.org/2000/svg" style="vector-effect: non-scaling-stroke;" stroke="null" preserveAspectRatio="xMidYMid meet">

 <g stroke="null">
  <title stroke="null">background</title>
  <rect stroke="null" fill="#fbaf0b" id="canvas_background" height="510" width="510" y="-1" x="-1"/>
 </g>
 <g stroke="null">
  <g transform="translate(0,512) scale(0.10000000149011612,-0.10000000149011612) " id="svg_1" fill="#1D2F3B">
   <path stroke="#1D2F3B" stroke-width="0" id="svg_2" d="m0,2579l0,-2560l2560,0l2560,0l0,2560l0,2560l-2560,0l-2560,0l0,-2560zm2884,2160c147,-25 325,-84 458,-150c379,-190 679,-541 818,-959c70,-208 70,-209 70,-1118l0,-813l-478,0c-534,0 -545,1 -620,66c-71,60 -87,102 -87,224c0,119 13,158 76,221c59,59 109,71 302,77l167,4l0,179l0,179l-1002,-2l-1003,-3l-3,-322l-2,-323l47,-1c27,0 107,-4 178,-8c179,-11 239,-41 296,-151c20,-38 24,-60 24,-140c0,-111 -23,-172 -81,-216c-60,-46 -96,-53 -280,-54l-171,0l-6,-98c-4,-53 -7,-154 -7,-223l0,-126l77,-7c42,-3 113,-6 158,-6c115,0 179,-21 237,-79c59,-59 83,-132 76,-232c-10,-131 -77,-220 -191,-254c-57,-17 -337,-20 -795,-8l-262,6l3,1506c3,1497 3,1507 24,1592c116,469 440,879 860,1088c178,89 376,147 584,170c129,15 395,5 533,-19z"/>
   <path stroke="#1D2F3B" stroke-width="0" id="svg_3" d="m2320,4076c-264,-47 -463,-169 -591,-364c-75,-114 -139,-306 -139,-417l0,-35l966,0l967,0l-6,74c-4,40 -18,111 -33,157c-45,144 -98,234 -198,337c-110,115 -232,183 -406,230c-83,21 -120,25 -290,28c-132,2 -219,-1 -270,-10z"/>
  </g>
 </g>
</svg>
